<svg xmlns="http://www.w3.org/2000/svg" viewBox="0 0 548.08 807.65"><defs><style>.cls-1,.cls-2{fill:none;stroke:#9fc9eb;stroke-linecap:round;stroke-linejoin:round;stroke-width:5px;}.cls-2{stroke-dasharray:12.04 12.04;}</style></defs><title>w</title><g id="Layer_2" data-name="Layer 2"><g id="Layer_1-2" data-name="Layer 1"><path class="cls-1" d="M545.58,2.5q-2.87.88-5.72,1.81"/><path class="cls-2" d="M528.45,8.15A462.65,462.65,0,0,0,426.26,59.06C400.74,76,374.87,99.24,373,129.82c-1.58,26.16,15.25,50,34.49,67.73s41.83,32.26,57.88,53,24.2,50.83,10.33,73.06c-16.23,26-52.33,28.68-83,29.16-64.67,1-133.46,6.49-185.34,45.1-15.19,11.31-29,26.27-32.76,44.84-5.68,28.25,13.81,56.06,37.52,72.44s51.85,25.13,76.53,40,47.09,39.19,46.79,68c-.2,20-11.7,38.72-27.37,51.13S273,693.4,253.4,697.44c-48,9.88-98.62,4.77-145.38,19.35A181.39,181.39,0,0,0,8.41,794.68"/><path class="cls-1" d="M5.36,799.87c-1,1.74-1.94,3.5-2.86,5.28"/></g></g></svg>