<svg xmlns="http://www.w3.org/2000/svg" viewBox="0 0 551.08 810.65"><defs><style>.cls-1,.cls-2{fill:none;stroke:#9fc9eb;stroke-linecap:round;stroke-linejoin:round;stroke-width:8px;}.cls-2{stroke-dasharray:12.04 12.04;}</style></defs><title>w1</title><g id="Layer_2" data-name="Layer 2"><g id="Layer_1-2" data-name="Layer 1"><path class="cls-1" d="M547.08,4q-2.87.88-5.72,1.81"/><path class="cls-2" d="M530,9.65A462.65,462.65,0,0,0,427.76,60.56c-25.52,17-51.39,40.18-53.23,70.76-1.58,26.16,15.25,50,34.49,67.73s41.83,32.26,57.88,53,24.2,50.83,10.33,73.06c-16.23,26-52.33,28.68-83,29.16-64.67,1-133.46,6.49-185.34,45.1-15.19,11.31-29,26.27-32.76,44.84-5.68,28.25,13.81,56.06,37.52,72.44s51.85,25.13,76.53,40,47.09,39.19,46.79,68c-.2,20-11.7,38.72-27.37,51.13s-35.13,19.15-54.71,23.19c-48,9.88-98.62,4.77-145.38,19.35A181.39,181.39,0,0,0,9.91,796.18"/><path class="cls-1" d="M6.86,801.37c-1,1.74-1.94,3.5-2.86,5.28"/></g></g></svg>