<svg xmlns="http://www.w3.org/2000/svg" xmlns:xlink="http://www.w3.org/1999/xlink" viewBox="0 0 485.8 449.4"><defs><style>.cls-1{fill:url(#linear-gradient);}.cls-2{fill:url(#linear-gradient-2);}.cls-3{fill:url(#linear-gradient-3);}.cls-4{fill:url(#linear-gradient-4);}.cls-5{fill:url(#linear-gradient-5);}.cls-6{fill:url(#linear-gradient-6);}.cls-7{fill:url(#linear-gradient-7);}.cls-8{fill:url(#linear-gradient-8);}.cls-9{fill:url(#linear-gradient-9);}.cls-10{fill:url(#linear-gradient-10);}</style><linearGradient id="linear-gradient" x1="181.07" y1="374.44" x2="303.96" y2="497.33" gradientUnits="userSpaceOnUse"><stop offset="0" stop-color="#3ff"/><stop offset="1"/></linearGradient><linearGradient id="linear-gradient-2" x1="36.72" y1="-16.04" x2="449.01" y2="396.26" xlink:href="#linear-gradient"/><linearGradient id="linear-gradient-3" x1="351.7" y1="147.6" x2="359.5" y2="155.4" xlink:href="#linear-gradient"/><linearGradient id="linear-gradient-4" x1="280.6" y1="94.3" x2="288.4" y2="102.1" xlink:href="#linear-gradient"/><linearGradient id="linear-gradient-5" x1="270.6" y1="73.2" x2="278.4" y2="81" xlink:href="#linear-gradient"/><linearGradient id="linear-gradient-6" x1="258.45" y1="54.25" x2="266.25" y2="62.05" xlink:href="#linear-gradient"/><linearGradient id="linear-gradient-7" x1="311.6" y1="125.5" x2="319.4" y2="133.3" xlink:href="#linear-gradient"/><linearGradient id="linear-gradient-8" x1="290.75" y1="115.15" x2="298.55" y2="122.95" xlink:href="#linear-gradient"/><linearGradient id="linear-gradient-9" x1="332.85" y1="135.45" x2="340.6" y2="143.2" xlink:href="#linear-gradient"/><linearGradient id="linear-gradient-10" x1="158.69" y1="111.46" x2="302.64" y2="255.41" xlink:href="#linear-gradient"/></defs><title>digital</title><g id="Layer_2" data-name="Layer 2"><g id="Capa_1" data-name="Capa 1"><path class="cls-1" d="M346.3,422.4h2.3c-24-3-36.8-12.6-43.6-22.3H180.8c-6.8,9.7-19.6,19.3-43.6,22.3h1.5a13.5,13.5,0,1,0,0,27H346.3a13.5,13.5,0,1,0,0-27Z"/><path class="cls-2" d="M485.8,289.6V35.3A35.29,35.29,0,0,0,450.5,0H35.3A35.29,35.29,0,0,0,0,35.3V347.9H0a31.1,31.1,0,0,0,31.1,29.9H454.6a31.16,31.16,0,0,0,31.1-29.9h0l.1-58.3ZM271.1,343.9a7.81,7.81,0,0,1-7.8,7.8H222.4a7.81,7.81,0,0,1-7.8-7.8v-5.4a7.81,7.81,0,0,1,7.8-7.8h40.9a7.81,7.81,0,0,1,7.8,7.8ZM450.5,302H35.3a6.23,6.23,0,0,1-6.2-6.2V35.3a6.23,6.23,0,0,1,6.2-6.2H450.4a6.23,6.23,0,0,1,6.2,6.2V295.8h0A6.15,6.15,0,0,1,450.5,302Z"/><path class="cls-3" d="M344.2,155.1h15.6l.5-.5a101.11,101.11,0,0,0-1.1-14.5Z"/><path class="cls-4" d="M308.4,66.5,258.9,116v15.6l59-59A89.57,89.57,0,0,0,308.4,66.5Z"/><path class="cls-5" d="M286.4,57.4,258.9,84.9v15.6l39-39A78.7,78.7,0,0,0,286.4,57.4Z"/><path class="cls-6" d="M273.6,54.7a100,100,0,0,0-14.5-1.1l-.2.2V69.4Z"/><path class="cls-7" d="M297.6,155.1l49.7-49.7a89.57,89.57,0,0,0-6.1-9.5L282,155.1Z"/><path class="cls-8" d="M334.3,87.2c-1.2-1.3-2.4-2.6-3.7-3.9s-2.7-2.6-4.1-3.9l-67.6,67.7V155h7.6Z"/><path class="cls-9" d="M328.7,155.1l27.8-27.8a120.41,120.41,0,0,0-4-11.5l-39.3,39.3Z"/><path class="cls-10" d="M241.2,71.1A101.8,101.8,0,1,0,343,172.9H241.2Z"/></g></g></svg>