<svg xmlns="http://www.w3.org/2000/svg" xmlns:xlink="http://www.w3.org/1999/xlink" viewBox="0 0 460.94 364.02"><defs><style>.cls-1{fill:url(#linear-gradient);}</style><linearGradient id="linear-gradient" y1="182.01" x2="460.94" y2="182.01" gradientUnits="userSpaceOnUse"><stop offset="0" stop-color="#31e8e8"/><stop offset="1" stop-color="#254041"/></linearGradient></defs><title>graphic</title><g id="Layer_2" data-name="Layer 2"><g id="Capa_1" data-name="Capa 1"><path class="cls-1" d="M460.79,356.69l-50.21-221a6,6,0,0,0-5.86-4.67H361l48.84-99.48a14.94,14.94,0,0,0-6.83-20l-20.39-10a15,15,0,0,0-20,6.83L302.36,131H67.75a6,6,0,0,0-5.86,4.67l-21.13,93a33.35,33.35,0,0,1-27.44-42.21l25-87.23A33.5,33.5,0,0,1,70.39,75.13H227.33A45.37,45.37,0,0,0,270.2,44.57l2.45-7.13a6,6,0,1,0-11.34-3.91l-2.46,7.12a33.34,33.34,0,0,1-31.52,22.48h-157A45.52,45.52,0,0,0,26.8,96l-25,87.23a45.33,45.33,0,0,0,36.3,57.25L11.68,356.69A6,6,0,0,0,17.53,364H454.94a6,6,0,0,0,5.85-7.33ZM97,269h-53l14.76-65h49.4Zm30.14-105H286.16l-30.34,61.79a26.33,26.33,0,0,0,6.48,31.56l-4.88,9.94a6,6,0,0,0,2.74,8,6.07,6.07,0,0,0,2.64.61,6,6,0,0,0,5.39-3.36l4.76-9.7a26.13,26.13,0,0,0,6.46.83,26.41,26.41,0,0,0,8.52-1.43A26.09,26.09,0,0,0,303,249l41.73-85h33.79l28.9,158H100.06ZM373.36,13.65a2.95,2.95,0,0,1,3.94-1.35l20.4,10a3,3,0,0,1,1.34,4L292.27,243.7a14.3,14.3,0,1,1-25.68-12.61ZM72.53,143H296.47l-4.42,9H122a6,6,0,0,0-5.91,5l-6,35H61.4ZM25.05,352l16.13-71H94.9L87,327a6,6,0,0,0,5.91,7H414.65a6,6,0,0,0,5.91-7.08l-31.1-170a6,6,0,0,0-5.9-4.92h-32.9l4.42-9h44.85l47.49,209Z"/></g></g></svg>