<svg xmlns="http://www.w3.org/2000/svg" viewBox="0 0 295.68 308.65"><defs><style>.cls-1{fill:#90e0ef;stroke:#90e0ef;}.cls-1,.cls-2{stroke-miterlimit:10;stroke-width:5px;}.cls-2{fill:#003;stroke:#003;}</style></defs><title>styx</title><g id="Layer_2" data-name="Layer 2"><g id="lower"><path class="cls-1" d="M210.24,81,279.18,12.8l-61.79,37L235,33.23l-127.41.25S56,36,45.05,84.29c0,0-13,63.83,56.94,79.92l27.57-28.35-38,60.77,75.06-77.36-48.76.25s-19.41-2-18.13-19.91c0,0,1.53-13.53,15.32-18.38Z"/><path class="cls-2" d="M129.69,188.23l74.81-76.6L167.09,172.4l26.68-28.6s69.71,13.53,55.92,81.7c0,0-6.9,43.92-55.66,48.26L61,275.29,79.9,257.93,16.33,296l68.93-68.42,91.92-.26s21.44-2.81,18.64-25.28c0,0-2.56-10.46-15.07-13.27Z"/></g></g></svg>