<svg xmlns="http://www.w3.org/2000/svg" xmlns:xlink="http://www.w3.org/1999/xlink" viewBox="0 0 490 394.06"><defs><style>.cls-1{fill:url(#linear-gradient);}.cls-2{fill:url(#linear-gradient-2);}.cls-3{fill:url(#linear-gradient-3);}</style><linearGradient id="linear-gradient" x1="58.19" y1="-43.51" x2="431.81" y2="330.11" gradientUnits="userSpaceOnUse"><stop offset="0" stop-color="#3ff"/><stop offset="1"/></linearGradient><linearGradient id="linear-gradient-2" x1="163.17" y1="95.35" x2="259.05" y2="191.22" xlink:href="#linear-gradient"/><linearGradient id="linear-gradient-3" x1="120.41" y1="229.47" x2="369.59" y2="478.65" xlink:href="#linear-gradient"/></defs><title>video</title><g id="Layer_2" data-name="Layer 2"><g id="Capa_1" data-name="Capa 1"><path class="cls-1" d="M465,286.6H25a25,25,0,0,1-25-25V25A25,25,0,0,1,25,0H465a25,25,0,0,1,25,25V261.58A25,25,0,0,1,465,286.6ZM25,20.21A4.82,4.82,0,0,0,20.21,25V261.58A4.81,4.81,0,0,0,25,266.39H465a4.81,4.81,0,0,0,4.81-4.81V25A4.82,4.82,0,0,0,465,20.21Z"/><path class="cls-2" d="M192.69,220.09a10.29,10.29,0,0,1-5.48-9V75.49a10.11,10.11,0,0,1,16-8.23l95.35,67.81a10.1,10.1,0,0,1,0,16.47l-95.35,67.8A9.26,9.26,0,0,1,192.69,220.09Zm14.74-125v96.45l67.81-48.23Z"/><path class="cls-3" d="M479.9,344H286.77a40,40,0,0,0-77.4,0H10.1a10.11,10.11,0,0,0,0,20.21H209.37a40,40,0,0,0,77.4,0H479.9a10.11,10.11,0,0,0,0-20.21ZM248.07,373.85a19.79,19.79,0,1,1,19.79-19.79A19.82,19.82,0,0,1,248.07,373.85Z"/></g></g></svg>