<svg xmlns="http://www.w3.org/2000/svg" xmlns:xlink="http://www.w3.org/1999/xlink" viewBox="0 0 320.53 320.54"><defs><style>.cls-1{fill:url(#linear-gradient);}</style><linearGradient id="linear-gradient" x1="47" y1="47" x2="273.54" y2="273.54" gradientUnits="userSpaceOnUse"><stop offset="0" stop-color="#3ff"/><stop offset="1"/></linearGradient></defs><title>web</title><g id="Layer_2" data-name="Layer 2"><g id="OBJECTS"><path class="cls-1" d="M311.61,213a160.31,160.31,0,0,0,0-105.46,9.12,9.12,0,0,0-.51-1.44C288.85,44.3,229.64,0,160.27,0S31.69,44.3,9.43,106.1a11.7,11.7,0,0,0-.51,1.44A160.31,160.31,0,0,0,8.92,213a11.7,11.7,0,0,0,.51,1.44c22.27,61.8,81.47,106.1,150.84,106.1s128.58-44.3,150.83-106.1a9.12,9.12,0,0,0,.51-1.44ZM160.27,297.57c-6.11,0-16-11.05-24.17-35.73a250.84,250.84,0,0,1-9.46-40.49H193.9a251.09,251.09,0,0,1-9.46,40.49c-8.23,24.68-18.07,35.73-24.17,35.73Zm-36.42-99.19c-1.11-12.25-1.69-25-1.69-38.11s.58-25.86,1.69-38.11h72.84c1.1,12.25,1.68,25,1.68,38.11s-.58,25.86-1.68,38.11ZM23,160.27a136.61,136.61,0,0,1,5.39-38.11H100.8c-1.07,12.51-1.62,25.32-1.62,38.11s.55,25.6,1.62,38.11H28.36A136.67,136.67,0,0,1,23,160.27ZM160.27,23c6.1,0,15.94,11.05,24.17,35.73a251.09,251.09,0,0,1,9.46,40.49H126.64A250.84,250.84,0,0,1,136.1,58.7C144.32,34,154.16,23,160.27,23Zm59.46,99.19h72.44a137.42,137.42,0,0,1,0,76.22H219.73c1.08-12.51,1.61-25.32,1.61-38.11s-.53-25.6-1.61-38.11Zm63.47-23H217.1C213,71,206,45.73,196.17,27.75a137.87,137.87,0,0,1,87,71.44ZM124.37,27.75c-9.83,18-16.84,43.26-20.93,71.44H37.33a137.86,137.86,0,0,1,87-71.44Zm-87,193.6h66.11c4.09,28.18,11.1,53.46,20.93,71.45a137.93,137.93,0,0,1-87-71.45ZM196.17,292.8c9.83-18,16.84-43.27,20.93-71.45h66.1a137.94,137.94,0,0,1-87,71.45Z"/></g></g></svg>